<?xml version="1.0" standalone="no"?>
<!DOCTYPE svg PUBLIC "-//W3C//DTD SVG 20010904//EN"
 "http://www.w3.org/TR/2001/REC-SVG-20010904/DTD/svg10.dtd">
<svg version="1.0" xmlns="http://www.w3.org/2000/svg"
 width="953.000000pt" height="980.000000pt" viewBox="0 0 953.000000 980.000000"
 preserveAspectRatio="xMidYMid meet">

<g transform="translate(0.000000,980.000000) scale(0.100000,-0.100000)"
fill="#000000" stroke="none">
<path d="M3850 9790 c-787 -86 -1474 -552 -1836 -1245 -92 -177 -112 -193
-308 -230 -321 -61 -615 -190 -876 -384 -92 -69 -282 -251 -362 -348 -253
-309 -416 -704 -457 -1112 -52 -506 97 -1036 407 -1450 73 -98 256 -286 352
-364 116 -94 273 -194 405 -258 120 -58 353 -141 433 -154 l42 -7 0 339 c0
318 4 381 32 481 2 7 -31 27 -82 50 -129 57 -179 85 -265 150 -282 209 -457
506 -504 855 -80 584 285 1162 851 1351 145 48 221 59 428 61 174 2 201 5 253
24 125 49 217 156 256 301 153 567 589 976 1171 1101 149 32 438 33 585 1 282
-61 517 -180 725 -367 154 -138 261 -172 440 -139 125 23 354 23 465 0 393
-82 704 -318 890 -673 47 -92 98 -149 166 -190 87 -52 153 -64 304 -57 265 13
505 -45 718 -174 267 -161 454 -393 552 -685 52 -154 68 -274 62 -447 -12
-300 -110 -547 -310 -780 -117 -135 -299 -267 -459 -330 -46 -18 -84 -34 -86
-36 -2 -1 4 -36 12 -78 13 -59 16 -146 16 -417 l0 -342 41 7 c82 13 318 98
444 160 738 364 1188 1109 1162 1926 -13 402 -126 762 -343 1086 -342 512
-871 839 -1486 918 -176 23 -183 28 -318 195 -230 286 -592 534 -948 650 -225
74 -406 102 -667 105 -219 3 -190 -6 -380 122 -279 188 -607 316 -950 369
-121 19 -457 27 -575 15z"/>
<path d="M2230 6779 c-55 -25 -114 -80 -143 -134 -22 -39 -22 -48 -25 -579 -3
-622 -5 -604 82 -691 93 -94 -177 -85 2616 -85 2793 0 2523 -9 2616 85 87 87
85 69 82 691 -3 531 -3 540 -25 579 -29 54 -88 109 -143 134 -45 20 -53 21
-2530 21 -2477 0 -2485 -1 -2530 -21z m419 -320 c96 -54 117 -181 42 -263 -92
-101 -257 -59 -292 74 -37 143 120 263 250 189z m4071 -619 l0 -200 -610 0
-610 0 0 200 0 200 610 0 610 0 0 -200z"/>
<path d="M2225 5106 c-59 -27 -107 -72 -138 -130 -22 -41 -22 -46 -25 -580 -3
-622 -5 -604 82 -691 93 -94 -177 -85 2616 -85 2793 0 2523 -9 2616 85 87 87
85 69 82 691 -3 531 -3 540 -25 579 -29 54 -88 109 -143 134 -45 20 -53 21
-2530 21 l-2485 0 -50 -24z m422 -313 c66 -31 106 -127 83 -198 -55 -166 -275
-166 -330 0 -23 70 16 166 81 198 44 21 121 22 166 0z m4073 -618 l0 -205
-610 0 -610 0 0 205 0 205 610 0 610 0 0 -205z"/>
<path d="M2225 3436 c-59 -27 -107 -72 -138 -130 -22 -41 -22 -46 -25 -580 -3
-622 -5 -604 82 -691 93 -94 -177 -85 2616 -85 2793 0 2523 -9 2616 85 87 87
85 69 82 691 -3 537 -3 539 -25 581 -28 51 -82 105 -131 130 -36 17 -137 18
-2532 20 l-2495 3 -50 -24z m422 -313 c66 -31 106 -127 83 -198 -55 -166 -275
-166 -330 0 -23 70 16 166 81 198 44 21 121 22 166 0z m4073 -618 l0 -205
-610 0 -610 0 0 205 0 205 610 0 610 0 0 -205z"/>
<path d="M4440 1415 l0 -375 -257 -2 -258 -3 -3 -97 -3 -98 -899 0 -900 0 0
-320 0 -320 900 0 900 0 0 -100 0 -100 840 0 840 0 0 100 0 100 900 0 900 0 0
320 0 320 -900 0 -899 0 -3 98 -3 97 -257 3 -258 2 0 375 0 375 -320 0 -320 0
0 -375z"/>
</g>
</svg>
