<?xml version="1.0" standalone="no"?>
<!DOCTYPE svg PUBLIC "-//W3C//DTD SVG 20010904//EN"
 "http://www.w3.org/TR/2001/REC-SVG-20010904/DTD/svg10.dtd">
<svg version="1.0" xmlns="http://www.w3.org/2000/svg"
 width="512.000000pt" height="512.000000pt" viewBox="0 0 512.000000 512.000000"
 preserveAspectRatio="xMidYMid meet">

<g transform="translate(0.000000,512.000000) scale(0.100000,-0.100000)"
fill="#000000" stroke="none">
<path d="M3655 5061 c-50 -22 -97 -75 -119 -132 -15 -40 -16 -139 -14 -1104 3
-981 4 -1062 20 -1091 24 -44 70 -88 115 -110 36 -18 69 -19 663 -19 596 0
627 1 664 19 21 11 53 35 72 54 67 69 64 14 64 1171 l0 1046 -24 50 c-13 28
-36 62 -52 77 -64 59 -46 58 -726 58 -581 0 -626 -2 -663 -19z m1320 -101 c41
-38 55 -73 55 -135 l0 -55 -710 0 -710 0 0 55 c0 75 36 138 90 158 8 3 293 5
632 4 l616 -2 27 -25z m55 -1120 l0 -830 -710 0 -710 0 0 830 0 830 710 0 710
0 0 -830z m0 -978 c0 -76 -24 -120 -81 -150 l-44 -22 -600 2 -600 3 -34 24
c-42 30 -61 75 -61 146 l0 55 710 0 710 0 0 -58z"/>
<path d="M3810 4900 c-20 -20 -18 -47 4 -62 6 -4 38 -8 71 -8 65 0 78 5 88 33
12 32 -26 57 -88 57 -41 0 -60 -5 -75 -20z"/>
<path d="M4128 4909 c-21 -12 -24 -49 -6 -67 8 -8 67 -12 198 -12 131 0 190 4
198 12 18 18 14 56 -7 68 -26 13 -360 13 -383 -1z"/>
<path d="M4122 2848 c-7 -7 -12 -21 -12 -33 0 -42 15 -45 210 -45 195 0 210 3
210 45 0 42 -15 45 -210 45 -131 0 -190 -4 -198 -12z"/>
<path d="M198 4276 c-26 -7 -55 -19 -65 -26 -57 -44 -95 -90 -113 -137 -20
-53 -20 -80 -20 -1608 0 -1538 0 -1555 20 -1609 14 -36 36 -68 69 -99 86 -80
45 -77 968 -77 447 0 813 -2 813 -4 0 -5 -107 -529 -115 -563 -5 -23 -7 -23
-188 -23 -204 0 -221 -5 -215 -55 l3 -30 980 0 980 0 3 30 c6 50 -12 55 -214
55 l-182 0 -6 23 c-7 28 -116 557 -116 563 0 2 366 4 813 4 923 0 882 -3 968
77 33 31 55 63 69 99 19 53 20 75 20 822 0 584 -3 771 -12 780 -15 15 -51 15
-66 0 -9 -9 -12 -195 -12 -777 0 -759 0 -765 -21 -809 -13 -26 -38 -54 -62
-70 l-41 -27 -2121 0 -2122 0 -41 29 c-23 16 -50 46 -62 70 -20 42 -20 54 -20
1589 0 1281 2 1553 14 1580 17 41 66 88 108 104 25 9 428 12 1624 12 1222 1
1593 4 1602 13 18 18 14 56 -7 68 -31 16 -3172 13 -3233 -4z m2568 -3848 l60
-293 -249 -3 c-136 -1 -357 -1 -491 0 l-242 3 60 293 59 292 372 0 372 0 59
-292z"/>
<path d="M247 4022 c-16 -17 -17 -130 -17 -1414 0 -1339 1 -1396 18 -1411 17
-16 176 -17 2089 -17 1993 0 2071 1 2086 18 15 17 17 76 17 646 0 413 -4 634
-10 647 -12 21 -50 25 -68 7 -9 -9 -12 -160 -12 -620 l0 -608 -2015 0 -2015 0
0 1340 0 1340 1553 0 c1195 0 1556 3 1565 12 18 18 14 56 -7 68 -13 7 -528 10
-1594 10 -1512 0 -1575 -1 -1590 -18z"/>
<path d="M2028 1039 c-21 -12 -24 -49 -6 -67 9 -9 91 -12 309 -12 164 0 304 3
313 6 23 9 21 61 -3 74 -26 14 -590 13 -613 -1z"/>
</g>
</svg>
