<?xml version="1.0" standalone="no"?>
<!DOCTYPE svg PUBLIC "-//W3C//DTD SVG 20010904//EN"
 "http://www.w3.org/TR/2001/REC-SVG-20010904/DTD/svg10.dtd">
<svg version="1.0" xmlns="http://www.w3.org/2000/svg"
 width="876.000000pt" height="876.000000pt" viewBox="0 0 876.000000 876.000000"
 preserveAspectRatio="xMidYMid meet">

<g transform="translate(0.000000,876.000000) scale(0.100000,-0.100000)"
fill="#000000" stroke="none">
<path d="M5727 7783 c-4 -3 -7 -141 -7 -305 l0 -298 434 -2 434 -3 -1234
-1240 -1233 -1240 -643 643 -643 642 -505 -505 -505 -505 -136 136 -137 136
39 100 c389 997 1471 1560 2504 1302 313 -78 617 -232 860 -436 50 -41 103
-89 119 -107 17 -17 35 -31 40 -31 6 0 103 91 214 203 l203 203 -67 63 c-325
304 -715 528 -1123 646 -489 140 -1027 140 -1512 -1 -935 -271 -1661 -1029
-1893 -1976 -57 -234 -70 -351 -70 -643 -1 -282 8 -377 55 -590 207 -937 900
-1706 1809 -2008 260 -86 486 -126 771 -134 468 -14 887 77 1296 282 l142 71
513 -511 c1007 -1002 1044 -1038 1128 -1078 186 -89 373 -89 560 0 102 48 278
222 332 328 106 205 95 440 -28 632 -24 38 -291 311 -790 806 l-754 749 35 62
c200 346 315 693 361 1086 13 113 15 195 11 370 -7 294 -41 501 -123 761 l-36
112 -235 -235 -236 -236 17 -88 c156 -836 -216 -1702 -934 -2177 -521 -344
-1164 -441 -1773 -267 -714 205 -1288 795 -1472 1515 -42 165 -85 465 -66 465
3 0 89 -83 191 -185 l185 -185 505 505 505 505 640 -640 640 -640 1450 1450
c797 797 1453 1450 1457 1450 5 0 8 -204 8 -452 l-1 -453 301 -3 300 -2 -2
977 -3 978 -946 3 c-520 1 -949 -1 -952 -5z"/>
</g>
</svg>
